<svg width="48" height="48" xmlns="http://www.w3.org/2000/svg">
 <!-- Generator: Sketch 59 (86127) - https://sketch.com -->

 <title>designer</title>
 <desc>Created with Sketch.</desc>
 <g>
  <title>background</title>
  <rect x="-1" y="-1" width="50" height="50" id="canvas_background" fill="none"/>
 </g>
 <g>
  <title>Layer 1</title>
  <g id="Website" fill="none" fill-rule="evenodd">
   <path d="m40.20071,44.07943l4.20366,-4.20253l1.26132,5.46385l-5.46498,-1.26132zm-14.30435,-13.7339l-1.591,-1.59099l-4.77412,-4.77412l-1.591,-1.591l-9.84866,-9.84866l4.77299,-4.77412l9.84867,9.84866l1.59212,1.591l4.77299,4.77412l1.591,1.59099l12.42869,12.42869l-4.77299,4.77412l-12.42869,-12.42869zm-15.77159,12.58847l-3.77046,1.61575l-2.61941,-2.61941l1.61688,-3.77271l12.58734,-12.58622l4.77412,4.77412l-12.58847,12.58847zm-6.81406,-35.17411c-0.43207,-0.4332 -0.43094,-1.14656 0.00675,-1.58538l3.182,-3.18199c0.44219,-0.44107 1.1488,-0.4422 1.58537,-0.00675l3.18875,3.18874l-4.77412,4.77412l-3.18875,-3.18874zm34.35498,-1.91393l4.77412,4.773l-11.77046,11.77046l-4.77299,-4.77525l11.76933,-11.76821zm5.96906,-3.58256c0.00337,-0.00225 -0.00563,-0.00225 0.00337,0.00676l2.3775,2.37749c0.00675,0.00675 0.00675,0.00225 0.00675,0.00338l-3.18425,3.18312l-2.38649,-2.3865l3.18312,-3.18425zm2.64641,35.7367l-14.01969,-14.01968l9.35246,-9.35246l0.87652,0.87763c0.43994,0.43995 0.43994,1.15218 -0.00226,1.59438l-4.41518,4.41406c-0.43882,0.43995 -0.43882,1.15218 0,1.591c0.43994,0.43994 1.15218,0.43994 1.59099,0l4.41519,-4.41294c1.32096,-1.32095 1.32208,-3.45879 0.00338,-4.77749l-0.87764,-0.87764l0.82588,-0.827l1.591,-1.591l-1.19269,-1.19269l3.18425,-3.18425c0.88326,-0.88551 0.87426,-2.30435 -0.00675,-3.18649l-2.3775,-2.3775c-0.89001,-0.89001 -2.30773,-0.88326 -3.18537,-0.00562l-3.18425,3.18424l-1.19381,-1.19381l-1.591,1.591l-0.00112,0l0,0.00112l-11.76821,11.76822l-14.62953,-14.62841c-1.31758,-1.31646 -3.44867,-1.31196 -4.76737,0.00675l-3.182,3.182c-1.3142,1.3142 -1.32208,3.45316 -0.00675,4.76736l3.18875,3.18875l0.3038,0.3038l1.2872,1.28833l9.84866,9.84866l-12.89451,12.89451l-2.3865,5.56962l1.591,1.59099l-2.3865,2.3865l1.591,1.591l2.3865,-2.3865l1.59212,1.591l5.56962,-2.3865l12.89451,-12.89451l12.42756,12.42869l1.591,1.591l8.15077,1.88129c1.20169,0.2768 1.96681,-0.47707 1.68664,-1.68776l-1.88017,-8.14965z" id="designer" fill="#0f6487"/>
  </g>
 </g>
</svg>