<svg width="50" height="48" xmlns="http://www.w3.org/2000/svg">

 <!-- Generator: Sketch 59 (86127) - https://sketch.com -->
 <title>frontend</title>
 <desc>Created with Sketch.</desc>
 <g class="currentLayer">
  <title>Layer 1</title>
  <g fill-rule="evenodd" fill="#fabe00" id="Website">
   <path fill="#0f6487" id="frontend" d="m47.61905,44.3916c0,0.666 -0.53929,1.2084 -1.19524,1.2084l-42.84762,0c-0.6619,0 -1.19524,-0.5376 -1.19524,-1.2084l0,-26.3916l0,-4.8l0,-1.2l3.57143,0l7.14286,0l3.57143,0l3.57143,0l14.95238,0l12.42857,0l0,6l0,26.3916zm-44.04286,-41.9916l2.37619,0l7.14286,0l3.57143,0l3.57143,0l26.18571,0c0.65833,0 1.18929,0.534 1.19405,1.2c0,0.0024 0.00119,0.0048 0.00119,0.0084l0,5.9916l-27.38095,0l-3.57143,0l-3.57143,0l-7.14286,0l-3.57143,0l0,-5.9916c0,-0.0036 0.00119,-0.006 0.00119,-0.0084c0.00476,-0.6612 0.54048,-1.2 1.19405,-1.2l0,0zm42.84762,-2.4c1.97262,0 3.57024,1.6068 3.575,3.6c0,0.0024 0.00119,0.006 0.00119,0.0084l0,0l0,40.7832c0,1.9932 -1.60714,3.6084 -3.57619,3.6084l0,0l-42.84762,0c-1.975,0 -3.57619,-1.6116 -3.57619,-3.6084l0,0l0.0006,-40.7874l0,0c0.00416,-1.5678 1.00178,-2.8854 2.38035,-3.3822c0.375,-0.1356 0.77381,-0.222 1.19524,-0.222l0,0l42.84762,0zm-19.0431,17.03184c-0.18809,0.1308 -0.35357,0.3 -0.44285,0.5304l-0.16905,0.438l-4.01786,10.3464l-3.62143,9.3312c-0.24047,0.6168 0.06191,1.3128 0.675,1.554c0.6131,0.2412 1.30358,-0.0636 1.54286,-0.6792l1.40357,-3.6192l4.62976,-11.9268l1.77381,-4.5696c0.05596,-0.144 0.07619,-0.2916 0.07619,-0.4368c0,-0.48 -0.27976,-0.9336 -0.75,-1.1184c-0.38333,-0.1512 -0.78452,-0.0696 -1.1,0.15zm-12.61357,3.71952l-1.67143,1.6848l-4.21547,4.248c-0.46548,0.4692 -0.46548,1.2288 0,1.6968l4.21547,4.2492l1.67143,1.686c0.46548,0.468 1.21786,0.468 1.68334,0c0.46547,-0.4692 0.46547,-1.23 0,-1.6968l-3.35477,-3.3828l-1.69047,-1.704l1.69047,-1.7028l3.35477,-3.3816c0.46547,-0.4692 0.46547,-1.2276 0,-1.6968c-0.46548,-0.4692 -1.21786,-0.4692 -1.68334,0zm18.915,0c-0.46547,0.4692 -0.46547,1.2276 0,1.6968l1.50834,1.5204l3.53571,3.564l-3.53571,3.5664l-1.50834,1.5204c-0.46547,0.4668 -0.46547,1.2276 0,1.6968c0.4131,0.4152 1.04405,0.4416 1.50834,0.1164c0.05714,-0.0396 0.12262,-0.0636 0.175,-0.1164l5.8869,-5.9352c0.46548,-0.468 0.46548,-1.2276 0,-1.6968l-5.8869,-5.9328c-0.05238,-0.0516 -0.11786,-0.0768 -0.175,-0.1176c-0.46429,-0.3228 -1.09524,-0.3 -1.50834,0.1176zm-27.72976,-15.9516c-0.65833,0 -1.19048,0.5364 -1.19048,1.2c0,0.6636 0.53215,1.2 1.19048,1.2c0.65833,0 1.19048,-0.5364 1.19048,-1.2c0,-0.6636 -0.53215,-1.2 -1.19048,-1.2zm3.57143,0c-0.65833,0 -1.19048,0.5364 -1.19048,1.2c0,0.6636 0.53215,1.2 1.19048,1.2c0.65833,0 1.19048,-0.5364 1.19048,-1.2c0,-0.6636 -0.53215,-1.2 -1.19048,-1.2zm3.57143,0c-0.65834,0 -1.19048,0.5364 -1.19048,1.2c0,0.6636 0.53214,1.2 1.19048,1.2c0.65833,0 1.19047,-0.5364 1.19047,-1.2c0,-0.6636 -0.53214,-1.2 -1.19047,-1.2z"/>
  </g>
 </g>
 <g>
  <title>Layer 2</title>
  <rect fill="none" y="0" x="0" height="100%" width="100%" id="backgroundrect"/>
 </g>
 <g>
  <title>background</title>
  <rect fill="none" id="canvas_background" height="50" width="50" y="-1" x="-1"/>
 </g>
</svg>