<svg width="40" height="48" xmlns="http://www.w3.org/2000/svg">

 <!-- Generator: Sketch 59 (86127) - https://sketch.com -->
 <title>mentor</title>
 <desc>Created with Sketch.</desc>
 <g class="currentLayer">
  <title>Layer 1</title>
  <g fill-rule="evenodd" fill="#fabe00" id="Website">
   <path fill="#0f6487" id="mentor" d="m37.2,36l-32.4036,0c-0.8748,0 -1.6872,0.2544 -2.3964,0.6684l0,-31.8684c0,-1.3224 1.0776,-2.4 2.3964,-2.4l32.4036,0l0,33.6zm0,4.8l-28.8,0l0,2.4l28.8,0l0,2.4l-32.4036,0c-0.9012,0 -1.6788,-0.5088 -2.088,-1.2468c-0.1896,-0.3456 -0.3084,-0.738 -0.3084,-1.1652l0,-2.376c0,-1.3308 1.08,-2.412 2.3964,-2.412l32.4036,0l0,2.4zm2.4,-40.8l0,48l-34.8036,0c-1.9152,0 -3.5544,-1.128 -4.3224,-2.7564c-0.2964,-0.6228 -0.474,-1.3104 -0.474,-2.0436l0,0l0,-38.4c0,-2.6508 2.1576,-4.8 4.7964,-4.8l0,0l34.8036,0zm-20.4348,9.942l-6,3.6c-0.7224,0.4332 -1.1652,1.2156 -1.1652,2.058l0,7.2c0,0.8424 0.4428,1.6248 1.1652,2.058l6,3.6c0.7596,0.456 1.71,0.456 2.4696,0l6,-3.6c0.7224,-0.4332 1.1652,-1.2156 1.1652,-2.058l0,-7.2c0,-0.8424 -0.4428,-1.6248 -1.1652,-2.058l-6,-3.6c-0.7596,-0.456 -1.71,-0.456 -2.4696,0zm1.2348,2.058l6,3.6l0,7.2l-6,3.6l-6,-3.6l0,-7.2l6,-3.6z"/>
  </g>
 </g>
 <g>
  <title>Layer 2</title>
  <rect fill="none" y="0" x="0" height="100%" width="100%" id="backgroundrect"/>
 </g>
 <g>
  <title>background</title>
  <rect fill="none" id="canvas_background" height="50" width="50" y="-1" x="-1"/>
 </g>
</svg>