<?xml version="1.0" encoding="UTF-8"?>
<svg xmlns="http://www.w3.org/2000/svg" xmlns:xlink="http://www.w3.org/1999/xlink" width="32pt" height="32pt" viewBox="0 0 32 32" version="1.1">
<g id="surface1">
<path style=" stroke:none;fill-rule:nonzero;fill:rgb(7.843137%,10.980392%,22.745098%);fill-opacity:1;" d="M 14.835938 3.890625 C 10.070312 4.429688 7.25 7.207031 6.007812 9.113281 C 4.507812 11.402344 3.550781 13.71875 3.816406 17.4375 C 4.269531 17.523438 5.359375 17.582031 6.652344 17.542969 C 7.832031 17.507812 11.546875 17.554688 12.0625 17.691406 C 12.101562 17.976562 12.117188 18.859375 12.117188 20.347656 C 12.117188 21.789062 12.117188 24.453125 11.980469 24.683594 C 9.679688 23.824219 8.25 22.40625 7.242188 20.402344 C 6.472656 20.394531 5.558594 20.394531 4.558594 20.402344 C 5.09375 22.023438 6.191406 23.410156 7.664062 25.007812 C 9.191406 26.65625 13.257812 28.054688 14.699219 28.128906 C 14.824219 23.761719 14.769531 19.488281 14.644531 15.109375 C 14.214844 15.023438 13.324219 15.003906 11.972656 15.054688 C 10.777344 15.089844 7.082031 15.015625 6.617188 14.832031 C 6.617188 13.859375 6.867188 12.859375 7.371094 11.824219 C 7.960938 10.632812 9.195312 7.664062 12.25 7.28125 C 12.3125 7.527344 12.148438 10.324219 12.136719 10.9375 C 12.113281 11.566406 12.128906 11.996094 12.191406 12.230469 C 13.078125 12.378906 14.03125 12.378906 14.828125 12.230469 C 14.796875 9.777344 14.761719 5.753906 14.835938 3.890625 Z M 14.835938 3.890625 "/>
<path style=" stroke:none;fill-rule:nonzero;fill:rgb(7.843137%,10.980392%,22.745098%);fill-opacity:1;" d="M 26.476562 10.253906 C 26.402344 9.785156 25.953125 9.242188 25.265625 8.355469 C 24.710938 7.652344 24.253906 7.257812 23.847656 6.898438 L 23.828125 13.835938 L 23.828125 20.957031 C 23.335938 22.003906 21.535156 24.277344 19.847656 24.34375 C 19.773438 23.964844 19.683594 21.632812 19.707031 20.695312 C 19.734375 19.75 19.707031 19.085938 19.636719 18.703125 C 18.515625 18.542969 17.703125 18.519531 17.199219 18.632812 C 17.089844 23.195312 17.097656 26.558594 17.132812 28.101562 C 19.496094 28.105469 23.113281 26.140625 24.378906 24.699219 C 25.574219 23.347656 26.140625 22.625 26.519531 21.671875 Z M 26.476562 10.253906 "/>
<path style=" stroke:none;fill-rule:evenodd;fill:rgb(7.843137%,10.980392%,22.745098%);fill-opacity:1;" d="M 16.007812 0.960938 C 7.648438 0.960938 0.871094 7.734375 0.871094 16.09375 C 0.871094 24.453125 7.648438 31.226562 16.007812 31.226562 C 24.363281 31.226562 31.140625 24.453125 31.140625 16.09375 C 31.140625 7.734375 24.363281 0.960938 16.007812 0.960938 Z M 16.007812 1.90625 C 23.84375 1.90625 30.195312 8.257812 30.195312 16.09375 C 30.195312 23.929688 23.84375 30.28125 16.007812 30.28125 C 8.171875 30.28125 1.816406 23.929688 1.816406 16.09375 C 1.816406 8.257812 8.171875 1.90625 16.007812 1.90625 Z M 16.007812 1.90625 "/>
</g>
</svg>
