<svg width="176" height="46" xmlns="http://www.w3.org/2000/svg">
 <g>
  <title>background</title>
  <rect x="-1" y="-1" width="178" height="48" id="canvas_background" fill="none"/>
 </g>

 <g>
  <title>Layer 1</title>
  <path d="m24.99738,24.9634l0,-18.72591c-2.18309,0.98637 -11.54409,5.04195 -17.43355,5.04195c-0.1382,0 -0.28454,0 -0.42275,-0.00828l-0.82119,-0.03305l-0.01628,0.83499c-0.00382,0.12428 -0.09826,5.98529 1.83245,12.89029l16.86132,0z" id="svg_3"/>
  <path d="m26.99741,24.96339l17.29389,0c2.02849,-6.96972 1.96991,-12.88457 1.96597,-13.01009l-0.01672,-0.85165l-0.84585,0.03338c-6.04288,0.22917 -16.09024,-4.05478 -18.3973,-5.08128l0,18.90964z" fill="#3A92CC" id="svg_5"/>
  <path d="m24.99738,26.96346l-16.38437,0c2.34051,6.98442 7.02817,14.64764 16.38437,18.05136l0,-18.05136z" fill="#3A92CC" id="svg_7"/>
  <path d="m26.99746,26.96343l0,18.34542c9.87367,-3.50297 14.87912,-11.2658 17.4065,-18.34542l-17.4065,0z" id="svg_9"/>
  <text style="cursor: move;" font-weight="bold" transform="matrix(0.614972, 0, 0, 0.912907, 29.6148, 3.05828)" xml:space="preserve" text-anchor="start" font-family="'Quicksand SemiBold'" font-size="24" id="svg_2" y="28.45118" x="30.64128" fill-opacity="null" stroke-opacity="null" stroke-width="0" stroke="null" fill="#000000">BS Data Security</text>
 </g>
</svg>