<svg width="176" height="46" xmlns="http://www.w3.org/2000/svg">
 <defs>
  <style type="text/css">
   <![CDATA[
    .fil1 {fill:#0098DA;fill-rule:nonzero}
    .fil0 {fill:#0F6487;fill-rule:nonzero}
   ]]>
  </style>
 </defs>
 <g>
  <title>background</title>
  <rect fill="none" id="canvas_background" height="48" width="178" y="-1" x="-1"/>
 </g>
 <g>
  <title>Layer 1</title>
  <g id="Layer_x0020_1">
   <metadata id="CorelCorpID_0Corel-Layer"/>
   <g id="_79189352">
    <path d="m97.71801,44.24974l0,-7.7301l16.15305,0c1.00774,0 1.78316,-0.52748 2.32653,-1.58245c0.54338,-1.05497 0.81506,-2.45496 0.81506,-4.19968c0,-1.90727 -0.27169,-3.33771 -0.81506,-4.29104c-0.54338,-0.95363 -1.31879,-1.43045 -2.32653,-1.43045l-9.89928,0c-1.00774,0 -1.92164,-0.31456 -2.74155,-0.94338c-0.82006,-0.62912 -1.51162,-1.50133 -2.07467,-2.61722c-0.5632,-1.11589 -0.9979,-2.44501 -1.3041,-3.98674c-0.30635,-1.54204 -0.45952,-3.22612 -0.45952,-5.05196c0,-1.78542 0.14333,-3.43906 0.42985,-4.96057c0.28652,-1.52183 0.71124,-2.83044 1.27444,-3.92613c0.56305,-1.09538 1.2596,-1.95763 2.08949,-2.58675c0.8299,-0.62882 1.77831,-0.94338 2.84523,-0.94338l15.47137,0l0,7.7301l-15.47137,0c-0.86925,0 -1.54113,0.47682 -2.01533,1.43045c-0.47421,0.95333 -0.71138,2.28245 -0.71138,3.98674c0,1.70399 0.24202,3.02284 0.72621,3.95629c0.48405,0.93312 1.14109,1.39969 1.97098,1.39969l9.86962,0c2.19318,0 3.85797,1.05527 4.99407,3.16521c1.1361,2.10994 1.70414,5.31557 1.70414,9.61687c0,1.86655 -0.13819,3.59106 -0.41488,5.17351c-0.27668,1.58276 -0.69156,2.95227 -1.24477,4.1086c-0.55336,1.1566 -1.24977,2.05927 -2.08949,2.70859c-0.83988,0.64933 -1.82281,0.97384 -2.94906,0.97384l-16.15305,0l-0.00002,-0.00003zm26.08183,0l0,-44.24974l19.23546,0l0,7.7301l-15.5011,0l0,28.7897l15.5307,0l0,7.7301l-19.26519,0l0.00012,-0.00015zm5.02226,-19.23372l0,-6.51288l13.41303,0l0,6.51288l-13.41303,0zm39.16889,19.23372l-1.48194,-2.61722c-0.75089,0.81158 -1.55612,1.45066 -2.41552,1.91722c-0.85956,0.46656 -1.76362,0.7 -2.71203,0.7l-5.24593,0c-1.50178,0 -2.88973,-0.57815 -4.16431,-1.73476c-1.27444,-1.1563 -2.38087,-2.73906 -3.31944,-4.74766c-0.93857,-2.0083 -1.66963,-4.39238 -2.19333,-7.15164c-0.52355,-2.75926 -0.7854,-5.7417 -0.7854,-8.94734c0,-3.24633 0.26185,-6.20828 0.7854,-8.8864c0.5237,-2.67814 1.25475,-4.96057 2.19333,-6.84765c0.93857,-1.88676 2.04501,-3.34768 3.31944,-4.38242c1.27458,-1.03476 2.66255,-1.55199 4.16431,-1.55199l5.24593,0c1.56096,0 2.98857,0.52748 4.28283,1.58245c1.29427,1.05497 2.40568,2.53609 3.33427,4.44336c0.92873,1.90727 1.64995,4.18971 2.16367,6.84735c0.51371,2.65794 0.77057,5.5897 0.77057,8.79532c0,3.24602 -0.26185,6.23873 -0.7854,8.97778c-0.52355,2.73906 -1.2596,5.12283 -2.20802,7.15164l4.06049,6.45194l-5.0089,0l0,0.00002zm-10.96635,-18.25989l4.97923,0l4.0013,6.93873c0.67173,-1.29835 1.20027,-2.88112 1.58563,-4.74766c0.38536,-1.86655 0.57789,-3.91556 0.57789,-6.14734c0,-2.06952 -0.16786,-3.98674 -0.50372,-5.75196c-0.33601,-1.76522 -0.80522,-3.27649 -1.40793,-4.53444c-0.60256,-1.25794 -1.31893,-2.24203 -2.14883,-2.95199c-0.82975,-0.71025 -1.73866,-1.06522 -2.72672,-1.06522l-5.24593,0c-0.96824,0 -1.86231,0.35497 -2.68237,1.06522c-0.81991,0.70995 -1.52629,1.69404 -2.11917,2.95199c-0.59272,1.25794 -1.05709,2.75926 -1.39295,4.50397c-0.33587,1.74501 -0.50387,3.67218 -0.50387,5.78241c0,2.06952 0.16801,3.9967 0.50387,5.78213c0.33587,1.78542 0.80023,3.3172 1.39295,4.59567c0.59287,1.27815 1.29925,2.28245 2.11917,3.01291c0.82006,0.73015 1.71413,1.09538 2.68237,1.09538l5.24593,0c0.61255,0 1.23493,-0.16226 1.86731,-0.48677l-6.22414,-10.043l0,-0.00002z" class="fil0" id="_79189472"/>
    <path d="m0,44.24974l0,-44.24974l15.76763,0c1.04725,0 2.00066,0.24338 2.86021,0.73046c0.85941,0.48677 1.59547,1.20727 2.20802,2.16061c0.61255,0.95363 1.08675,2.15065 1.42262,3.59136c0.33587,1.4404 0.50387,3.09403 0.50387,4.96057c0,1.4202 -0.07901,2.65763 -0.23703,3.71261c-0.15817,1.05527 -0.37552,1.95793 -0.65205,2.70859c-0.27668,0.75066 -0.59771,1.37978 -0.96324,1.88706c-0.36568,0.50698 -0.74604,0.88246 -1.14109,1.12584c0.98792,0.64933 1.79798,1.82614 2.43036,3.53042c0.63222,1.7043 0.94841,3.85464 0.94841,6.45166c0,2.02881 -0.16301,3.86519 -0.48904,5.50858c-0.32603,1.64337 -0.79039,3.05331 -1.3931,4.23012c-0.60256,1.17681 -1.33362,2.07948 -2.19318,2.70859c-0.85956,0.62882 -1.81297,0.94338 -2.86007,0.94338l-16.21225,0l-0.00005,-0.0001zm3.70053,-19.23372l0,-6.51288l12.09672,0c1.06707,0 1.85864,-0.40866 2.37103,-1.21722c0.51239,-0.80887 0.77071,-2.19107 0.77071,-4.13873c0,-1.17681 -0.10868,-2.12019 -0.32603,-2.83044c-0.21735,-0.71025 -0.52854,-1.25794 -0.93372,-1.64337c-0.40504,-0.38543 -0.88908,-0.63907 -1.45228,-0.76092c-0.56305,-0.12154 -1.19043,-0.18246 -1.88199,-0.18246l-10.581,0l0,28.85049l10.90702,0c0.67188,0 1.29427,-0.10133 1.86731,-0.30431c0.57289,-0.20297 1.06693,-0.53774 1.48181,-1.0043c0.41502,-0.46656 0.73605,-1.06522 0.96324,-1.79568c0.22734,-0.73015 0.34086,-1.64337 0.34086,-2.73875c0,-1.82614 -0.27786,-3.2391 -0.8299,-4.23043c-0.55175,-0.99133 -1.36608,-1.49107 -2.43036,-1.49107l-12.36342,0l-0.00001,0.00008zm31.22694,19.23372l0,-16.79896l-9.97183,-27.45083l5.06808,0l6.91923,20.39032l6.94875,-20.39032l4.80139,0l-10.00149,27.45083l0,16.79896l-3.76412,0l-0.00001,0zm24.39263,0l0,-36.51972l-8.1803,0l0,-7.7301l20.12459,0l0,7.7301l-8.18015,0l0,36.51972l-3.76412,0l-0.00001,0zm14.43387,0l0,-44.24974l19.23546,0l0,7.7301l-15.5011,0l0,28.7897l15.5307,0l0,7.7301l-19.26519,0l0.00012,-0.00015zm5.02226,-19.23372l0,-6.51288l13.41303,0l0,6.51288l-13.41303,0z" class="fil1" id="_79189424"/>
   </g>
  </g>
 </g>
</svg>