<svg width="175.99999999999997" height="46" xmlns="http://www.w3.org/2000/svg">

 <g>
  <title>background</title>
  <rect fill="none" id="canvas_background" height="48" width="178" y="-1" x="-1"/>
 </g>
 <g>
  <title>Layer 1</title>
  <g id="svg_1">
   <g id="svg_2">
    <path id="svg_3" fill="#b9c3cd" d="m16.03073,33.28513l0,8.88704l2.20333,0l1.42454,-4.44352l-1.42454,-4.44352l-2.20333,0z"/>
    <path id="svg_4" fill="#909ba6" d="m18.23406,33.28513l2.20333,0l0,8.88704l-2.20333,0l0,-8.88704z"/>
   </g>
   <g id="svg_5">
    <path id="svg_6" fill="#dce6eb" d="m18.23406,43.44497l-8.88668,0l0,-2.5456l8.88668,0l1.42454,1.2728l-1.42454,1.2728z"/>
   </g>
   <g id="svg_7">
    <path id="svg_8" fill="#07485e" d="m0,6.86829l0,23.18595l18.23406,1.69707l2.1368,-8.90418l-2.1368,-15.97884l-18.23406,0z"/>
    <path id="svg_9" fill="#04303e" d="m36.46813,6.86829l-18.23406,0l0,24.88302l18.23406,-1.69707l0,-23.18595z"/>
   </g>
   <g id="svg_10">
    <path id="svg_11" fill="#dce6eb" d="m0,30.05425l0,5.24963l18.23406,0l1.42454,-2.62486l-1.42454,-2.62477l-18.23406,0z"/>
    <path id="svg_12" fill="#b9c3cd" d="m18.23406,30.05425l18.23406,0l0,5.24963l-18.23406,0l0,-5.24963z"/>
   </g>
   <g id="svg_13">
    <path id="svg_14" fill="#b9c3cd" d="m18.23406,40.89937l8.88668,0l0,2.5456l-8.88668,0l0,-2.5456z"/>
   </g>
   <g id="svg_15">
    <g id="svg_16">
     <path id="svg_17" fill="#d4ecfd" d="m11.65769,4.57275c-0.43163,-0.12423 -0.88193,-0.19168 -1.34562,-0.19168c-3.15492,0 -5.71246,3.04683 -5.71246,6.80533s2.55754,6.80533 5.71246,6.80533l7.92199,0l2.1368,-9.59124l-2.1368,-8.40049c-2.8208,0 -5.2799,1.84285 -6.57637,4.57275z"/>
     <path id="svg_18" fill="#9cd2fc" d="m26.15605,4.38107c-0.46369,0 -0.91391,0.06746 -1.34562,0.19168c-1.29647,-2.72991 -3.75558,-4.57275 -6.57637,-4.57275l0,17.99165l7.92199,0c3.15492,0 5.71246,-3.04683 5.71246,-6.80533s-2.55754,-6.80525 -5.71246,-6.80525z"/>
    </g>
    <g id="svg_19">
     <path id="svg_20" fill="#6aa8ff" d="m18.16241,6.02748l-4.45794,6.52319l0,0.05779l2.26971,0l0,10.76756l2.25988,0l1.42454,-7.89027l-1.42454,-9.45828l-0.07165,0z"/>
     <path id="svg_21" fill="#2681ff" d="m18.30572,6.02748l-0.07165,0l0,17.34854l2.25988,0l0,-10.76756l2.26971,0l0,-0.05779l-4.45794,-6.52319z"/>
    </g>
   </g>
  </g>
  <text transform="matrix(0.958042, 0, 0, 1, 1.6875, 0)" font-style="normal" font-weight="normal" xml:space="preserve" text-anchor="start" font-family="'Open Sans'" font-size="24" id="svg_22" y="29.33654" x="40.91196" stroke-width="0" stroke="#000" fill="#000000">S3 Uploader</text>
 </g>
</svg>