<svg width="1443" height="909" xmlns="http://www.w3.org/2000/svg" xmlns:xlink="http://www.w3.org/1999/xlink">
 <!-- Generator: Sketch 59 (86127) - https://sketch.com -->
 <title>Group 34</title>
 <desc>Created with Sketch.</desc>
 <defs>
  <path id="path-1" d="m0,426.131l0,-426.131l704.90829,0l0,426.131l-32.04129,0c0,176.50924 -143.45372,319.59825 -320.41286,319.59825c-176.95913,0 -320.41285,-143.08901 -320.41285,-319.59825l0,0l-32.04129,0z"/>
  <path id="path-3" d="m267.01072,0c82.58093,0 149.526,66.94507 149.526,149.526l0.00036,16.04284c15.15382,2.54251 26.70071,15.7219 26.70071,31.59821l0,37.12354c0,16.17393 -11.98386,29.54887 -27.55668,31.72993c-5.62258,52.73211 -38.66146,97.26984 -84.58574,119.08696l-0.00237,49.01252l18.24843,0.00095c101.99595,0 184.68,82.68406 184.68,184.68l0,31.04882l-534.02143,0l0,-31.04882c0,-101.99594 82.68405,-184.68 184.68,-184.68l18.248,-0.00095l-0.00095,-49.01205c-45.92479,-21.81694 -78.9641,-66.35493 -84.59112,-119.08716c-15.56843,-2.18133 -27.55229,-15.55627 -27.55229,-31.7302l0,-37.12354c0,-15.87631 11.54689,-29.0557 26.70072,-31.59821l0.00035,-16.04284c0,-82.58093 66.94508,-149.526 149.52601,-149.526z"/>
  <path id="path-5" d="m416.69068,34.83475c46.78366,5.22333 83.05965,19.28458 85.35774,54.99273c68.85235,26.83225 117.64345,93.78708 117.64345,172.13769l0,31.19068l-534.21713,0l0,-31.19068c0,-78.35054 48.79101,-145.30532 117.64701,-172.13832c2.29453,-35.70752 38.57052,-49.76877 85.35418,-54.9921l0.00132,50.30217c0,35.4048 28.70126,64.10606 64.10605,64.10606c35.4048,0 64.10606,-28.70126 64.10606,-64.10606l0,0l0.00132,-50.30217z"/>
  <path id="path-7" d="m93.65434,40.17709c2.82119,25.20809 24.29014,44.8084 50.35605,44.8084c26.14644,0 47.66747,-19.72159 50.38167,-45.04217c0.21844,-2.03781 -2.06686,-5.41797 -4.93101,-5.41797c-39.72023,0 -70.15131,0 -90.55571,0c-2.88076,0 -5.53325,3.12971 -5.251,5.65174z"/>
  <rect height="745.72925" width="704.90829" y="0" x="0" id="path-9"/>
  <path id="path-11" d="m481.05591,106.389c-7.36944,-7.51541 -15.92589,-13.89433 -24.24834,-20.29114c-1.83633,-1.41009 -3.70214,-2.7862 -5.49738,-4.24994c-0.40818,-0.33263 -4.58905,-3.32091 -5.08922,-4.42072c-1.20397,-2.64582 -0.50642,-0.58568 -0.34029,-3.74295c0.20989,-3.99242 8.3671,-15.26865 2.28023,-17.85456c-2.67768,-1.13737 -7.45429,1.88936 -10.02301,2.88903c-5.02402,1.95641 -10.10965,3.62492 -15.30337,5.06362c2.48834,-4.94828 7.23279,-14.85377 -1.68449,-12.20259c-6.94698,2.06551 -13.42059,7.37592 -20.40151,9.8742c2.30971,-3.77872 11.54674,-15.48773 3.20018,-16.14225c-2.5973,-0.20387 -10.1552,4.65857 -12.95168,5.69579c-8.37603,3.1072 -16.93159,5.11548 -25.72562,6.69725c-29.90202,5.37836 -64.86915,3.84488 -92.53471,17.43162c-21.3286,10.47418 -42.38926,26.72641 -54.71037,47.42171c-11.87543,19.94779 -16.3171,41.77867 -18.80276,64.63695c-1.82383,16.77531 -1.97209,34.11573 -1.11912,50.95184c0.27866,5.51607 0.9003,30.94326 8.92979,23.24276c4.00045,-3.83683 3.97098,-19.32992 4.97846,-24.57416c2.00514,-10.43394 3.93525,-20.91437 7.27834,-31.01479c5.89127,-17.79912 12.84093,-26.09875 27.5173,-38.35767c9.41834,-7.86591 16.03218,-18.49746 25.04503,-26.43312c4.04868,-3.56412 0.95925,-3.19304 7.46859,-2.7254c4.3729,0.31385 8.76544,0.43367 13.14728,0.54813c10.13644,0.26288 20.28897,0.19581 30.42809,0.23158c20.41937,0.07332 40.74318,0.36124 61.1429,-0.70549c9.06555,-0.4739 18.15611,-0.73053 27.19754,-1.56746c5.05081,-0.46764 14.01275,-3.69824 18.1704,-1.22947c3.80486,2.25865 7.75619,9.63367 10.48835,12.65414c6.45486,7.13806 14.15119,12.58975 21.69927,18.44291c15.73923,12.20438 23.68565,16.87283 28.46583,35.94523c4.76232,19.00177 3.42705,36.63057 9.32189,55.33011c1.03695,3.28782 3.77984,8.955 7.16134,3.87528c0.62788,-0.94333 0.46533,-6.12926 0.46533,-9.11326c0,-12.04525 3.05639,-21.08294 3.01834,-33.20684c-0.15041,-36.86258 -1.34456,-84.92987 -28.97261,-113.10034z"/>
 </defs>
 <g>
  <title>background</title>
  <rect fill="none" id="canvas_background" height="911" width="1445" y="-1" x="-1"/>
 </g>
 <g>
  <title>Layer 1</title>
  <g fill-rule="evenodd" fill="none" id="Website">
   <g id="Group-34">
    <g id="Group-30">
     <path opacity="0.83539" fill="#E2D7F4" id="Combined-Shape" d="m1176.98307,143.0755c29.1197,0 52.78101,23.00595 53.25132,51.57534l0.00714,0.86743c0,28.96334 -23.84071,52.44276 -53.25846,52.44276l-48.79617,0c-29.41677,0 -53.2577,23.47942 -53.2577,52.44276c0,28.96971 23.84428,52.44276 53.2577,52.44276l0,0l41.70439,-0.00047l0.00059,0.11548c27.46499,1.78244 49.24154,24.06327 49.69253,51.46034l0.00714,0.86742c0,27.78673 -21.94419,50.52604 -49.69952,52.32773l-0.00074,0.11482l69.2219,0.00022c29.11686,0 52.77587,23.00595 53.24614,51.57535l0.00713,0.86742c0,28.96334 -23.83794,52.44277 -53.25327,52.44277l-85.20591,0c-29.39912,0 -53.2406,23.47942 -53.2406,52.44276c0,28.9697 23.83662,52.44276 53.2406,52.44276l0,0l90.53091,0c29.11686,0 52.77587,23.00594 53.24613,51.57534l0.00714,0.86743c0,28.96334 -23.83794,52.44276 -53.25327,52.44276l-141.99646,0c29.11501,0 52.77252,23.00595 53.24276,51.57534l0.00713,0.86743c0,28.96334 -23.84182,52.44276 -53.24989,52.44276l-812.94919,0c-29.4091,0 -53.24989,-23.47305 -53.24989,-52.44276c0,-28.96334 23.84181,-52.44276 53.24989,-52.44276l76.32769,0c29.4071,0 53.24722,-23.47942 53.24722,-52.44276l0,0l-0.00714,-0.86743c-0.47021,-28.5694 -24.12653,-51.57534 -53.24008,-51.57534l0,0l-156.19922,0c-29.41097,0 -53.25327,-23.47306 -53.25327,-52.44276c0,-28.96334 23.83794,-52.44276 53.25327,-52.44276l45.26687,0c-29.41342,0 -53.2577,-23.47306 -53.2577,-52.44277c0,-28.96333 23.84093,-52.44276 53.2577,-52.44276l186.36157,0c29.41345,0 53.25541,-23.47942 53.25541,-52.44276l0,0l-0.00714,-0.86742c-0.47028,-28.5694 -24.13024,-51.57535 -53.24827,-51.57535l0,0l-128.67855,0c-29.41097,0 -53.25327,-23.47305 -53.25327,-52.44276c0,-28.96334 23.83794,-52.44276 53.25327,-52.44276l-68.776,0c-29.41383,0 -53.25845,-23.47305 -53.25845,-52.44276c0,-28.96334 23.8407,-52.44276 53.25845,-52.44276l933.18818,0z"/>
     <g id="Avataaar/Circle">
      <mask id="mask-2">
       <use id="svg_1" xlink:href="#path-1"/>
      </mask>
      <g id="Mask"/>
      <g mask="url(#mask-2)" id="Avataaar">
       <g id="svg_2">
        <g fill-rule="evenodd" id="Body">
         <mask id="mask-4">
          <use id="svg_3" xlink:href="#path-3"/>
         </mask>
         <use transform="matrix(1.00126, 0, 0, 0.986084, -1.79578, 12.4618)" id="svg_4" x="460.45577" y="95.51264" xlink:href="#path-3" fill="#D0C6AC"/>
         <g fill="#FFDBB4" mask="url(#mask-4)" id="Skin/ðŸ‘¶ðŸ»-05-Pale">
          <g id="Color">
           <rect id="svg_5" height="640.90011" width="705.82926" y="106.64531" x="373.68949"/>
          </g>
         </g>
         <path mask="url(#mask-4)" fill="#000000" fill-opacity="0.1" id="Neck-Shadow" d="m576.87354,353.13845c0,81.43171 67.02951,147.44516 149.71458,147.44516c82.68507,0 149.71457,-66.01345 149.71457,-147.44516l0,0l0,21.01004c0,81.43171 -67.0295,147.44516 -149.71457,147.44516c-82.68507,0 -149.71458,-66.01345 -149.71458,-147.44516l0,-21.01004z"/>
        </g>
        <g id="Clothing/Hoodie">
         <mask id="mask-6">
          <use id="svg_6" xlink:href="#path-5"/>
         </mask>
         <use transform="matrix(1.00126, 0, 0, 0.986084, -1.79578, 12.4618)" x="375.01234" y="452.39737" xlink:href="#path-5" fill-rule="evenodd" fill="#B7C1DB" id="Hoodie"/>
         <g fill-rule="evenodd" fill="#293347" mask="url(#mask-6)" id="Color/Palette/Slate">
          <rect height="289.07622" width="705.94004" y="458.56354" x="373.68949" id="ðŸ–Color"/>
         </g>
         <path mask="url(#mask-6)" fill-rule="evenodd" fill="#F4F4F4" id="Straps" d="m646.48202,620.81087l0.0018,126.82889l-18.72118,0l-0.00329,-136.26125c5.89425,3.44253 12.16105,6.59839 18.72267,9.43236zm179.19352,-9.43236l-0.00329,106.01882c0,5.09135 -4.19088,9.2187 -9.36059,9.2187c-5.16971,0 -9.36059,-4.12735 -9.36059,-9.2187l0.0018,-96.58646c6.56162,-2.83398 12.82841,-5.98984 18.72267,-9.43236z"/>
         <path mask="url(#mask-6)" fill-rule="evenodd" fill="#000000" fill-opacity="0.16" id="Shadow" d="m836.47321,492.00205c40.25461,7.48115 68.09544,22.38622 68.09544,51.46499c0,51.80329 -88.35777,93.79815 -177.85121,93.79815c-89.49344,0 -177.8512,-41.99486 -177.8512,-93.79815c0,-29.07874 27.84077,-43.98381 68.0953,-51.46496c-24.29912,8.80291 -40.01353,23.60283 -40.01353,48.23054c0,53.58961 74.40654,97.03257 149.76943,97.03257c75.3629,0 149.76944,-43.44296 149.76944,-97.03257c0,-24.11532 -15.06733,-38.80754 -38.50882,-47.67409l-1.50485,-0.55648z"/>
        </g>
        <g fill-rule="evenodd" id="Face">
         <g id="Mouth/Smile">
          <mask id="mask-8">
           <use id="svg_7" xlink:href="#path-7"/>
          </mask>
          <use transform="matrix(1.00126, 0, 0, 0.986084, -1.79578, 12.4618)" x="583.28073" y="356.51787" xlink:href="#path-7" fill-rule="evenodd" fill="#000000" fill-opacity="0.7" id="Mouth"/>
          <path mask="url(#mask-8)" fill-rule="evenodd" fill="#FFFFFF" id="Teeth" d="m699.20038,369.25599l57.09454,0c7.09198,0 12.84117,5.66204 12.84117,12.64652l0,16.60836c0,6.98448 -5.74919,12.64652 -12.84117,12.64652l-57.09454,0c-7.09198,0 -12.84117,-5.66204 -12.84117,-12.64652l0,-16.60836c0,-6.98448 5.74919,-12.64652 12.84117,-12.64652z"/>
          <g fill="#FF4F6D" mask="url(#mask-8)" fill-rule="evenodd" id="Tongue">
           <g id="svg_8">
            <ellipse id="svg_9" ry="28.80721" rx="29.37245" cy="455.67767" cx="713.06143"/>
            <ellipse id="svg_10" ry="28.80721" rx="29.37245" cy="455.67767" cx="739.76365"/>
           </g>
          </g>
         </g>
         <g fill-opacity="0.16" fill="#000000" id="Nose/Default">
          <path id="Nose" d="m694.53478,353.39045c0,11.53566 14.37297,20.88716 32.10293,20.88716l0,0c17.72996,0 32.10293,-9.3515 32.10293,-20.88716"/>
         </g>
         <g fill-opacity="0.6" fill="#000000" id="Eyes/Happy-ðŸ˜">
          <path id="Squint" d="m620.112,307.24896c4.94055,-9.94845 16.06509,-16.88447 28.99677,-16.88447c12.88603,0 23.97766,6.88713 28.94422,16.77922c1.47536,2.93853 -0.62408,5.34336 -2.74182,3.56135c-6.55821,-5.51851 -15.87147,-8.96489 -26.20239,-8.96489c-10.00781,0 -19.06062,3.23417 -25.57901,8.45322c-2.3833,1.90822 -4.86277,-0.03472 -3.41776,-2.94444z"/>
          <path id="Squint" d="m775.29781,307.24896c4.94055,-9.94845 16.06509,-16.88447 28.99677,-16.88447c12.88603,0 23.97765,6.88713 28.94422,16.77922c1.47536,2.93853 -0.62409,5.34336 -2.74182,3.56135c-6.55821,-5.51851 -15.87147,-8.96489 -26.20239,-8.96489c-10.00782,0 -19.06062,3.23417 -25.57902,8.45322c-2.38329,1.90822 -4.86276,-0.03472 -3.41775,-2.94444z"/>
         </g>
         <g fill-opacity="0.6" fill="#000000" id="Eyebrow/Natural/Default-Natural">
          <path id="Eyebrow" d="m647.90416,243.50586c-15.53735,0.70036 -40.65635,11.71733 -40.00919,27.00655c0.02144,0.50043 0.77468,0.72014 1.1427,0.33522c7.37107,-7.72645 59.70735,-15.53398 78.14122,-11.39658c1.68704,0.3792 2.9688,-1.24484 1.90023,-2.41804c-9.15625,-10.04738 -27.25515,-14.16781 -41.17496,-13.52714"/>
          <path id="Eyebrow" d="m807.21599,263.57646c15.17782,3.34685 37.97268,18.49221 34.63954,33.43847c-0.10935,0.48917 -0.88989,0.57672 -1.18446,0.13471c-5.89674,-8.86964 -56.06129,-25.50889 -74.94462,-24.58684c-1.72827,0.08493 -2.7042,-1.73364 -1.44501,-2.70627c10.7887,-8.32888 29.33916,-9.2915 42.93454,-6.28006"/>
         </g>
        </g>
        <g fill-rule="evenodd" id="Top">
         <mask id="mask-10">
          <use id="svg_11" xlink:href="#path-9"/>
         </mask>
         <g id="Mask"/>
         <g mask="url(#mask-10)" id="Top/Short-Hair/Short-Flat-Low">
          <g id="svg_12">
           <mask id="mask-12">
            <use id="svg_13" xlink:href="#path-11"/>
           </mask>
           <use transform="matrix(1.00126, 0, 0, 0.986084, -1.79578, 12.4618)" x="372.34223" y="-0.36683" xlink:href="#path-11" fill-rule="evenodd" fill="#1F3140" id="Short-Hair"/>
           <g fill-rule="evenodd" mask="url(#mask-12)" fill="none" id="Color/Hair/Brown-Dark">
            <g id="Color" fill="#4A312C">
             <rect id="svg_14" height="735.55612" width="706.57775" y="12.10011" x="373.68969"/>
            </g>
           </g>
          </g>
         </g>
        </g>
       </g>
      </g>
     </g>
     <path fill="#FFFFFF" stroke-width="11.4" stroke="#fabe00" id="Case" d="m351.03519,436.62875c0,-21.7314 17.87917,-39.34379 39.94662,-39.34379l672.2095,0c22.05895,0 39.94662,17.62133 39.94662,39.34379l0,419.51549c0,21.73139 -17.87917,39.34379 -39.94662,39.34379l-672.2095,0c-22.05895,0 -39.94662,-17.62133 -39.94662,-39.34379l0,-419.51549z"/>
     <path fill="#E2D7F4" id="apple_logo" d="m744.17743,610.45028c4.07431,-4.81707 6.80871,-11.51062 6.06083,-18.19655c-5.8466,0.22502 -12.95524,3.82925 -17.13862,8.62725c-3.75492,4.27548 -7.04631,11.08346 -6.1738,17.62065c6.52825,0.49581 13.19673,-3.2419 17.25158,-8.05134m30.26134,65.34131c-0.14412,0.38903 -2.45005,8.17338 -8.06295,16.18657c-4.83387,6.94528 -9.87418,13.86768 -17.80469,14.00498c-7.7747,0.14874 -10.27928,-4.51577 -19.18356,-4.51577c-8.9004,0 -11.68153,4.37847 -19.05114,4.66451c-7.65785,0.29369 -13.4655,-7.50212 -18.3617,-14.41307c-9.99882,-14.13847 -17.61772,-39.96301 -7.38518,-57.37769c5.10264,-8.65776 14.18999,-14.12702 24.06807,-14.27577c7.52541,-0.12205 14.60678,4.94675 19.19914,4.94675c4.59627,0 13.20064,-6.12908 22.26463,-5.22899c3.77828,0.16782 14.42759,1.49891 21.27526,11.29705c-0.5648,0.35089 -12.70985,7.26184 -12.57741,21.67491c0.15191,17.23162 15.44034,22.96786 15.61951,23.03651"/>
     <path fill="#fabe00" stroke-width="22.8" stroke="#fabe00" id="Rectangle-29" d="m855.09299,439.3526l0,32.88583c0,4.65633 3.83279,8.43102 8.56078,8.43102l279.05409,0c4.728,0 8.56079,-3.77469 8.56079,-8.43102l0,-78.46858c0,-4.65632 -3.8328,-8.43102 -8.56079,-8.43102l-279.05409,0c-4.728,0 -8.56078,3.7747 -8.56078,8.43102l0,32.88583l0,12.69691z"/>
     <g fill="#FFFFFF" transform="translate(848.801, 422.757) scale(1, -1) translate(-848.801, -422.757) translate(719.301, 396.757)" id="Group-85">
      <rect rx="5.9738" height="11.78133" width="147.53954" y="-17.99078" x="156.36772" opacity="0.7" id="Rectangle-11"/>
      <path opacity="0.7" id="Rectangle-11" d="m319.85748,-6.20945l69.78221,0c3.3034,0 5.98133,-2.63734 5.98133,-5.89067c0,-3.25333 -2.67793,-5.89067 -5.98133,-5.89067l-69.78221,0c-3.3034,0 -5.98133,2.63734 -5.98133,5.89067c0,3.25333 2.67793,5.89067 5.98133,5.89067z"/>
      <rect rx="5.9738" height="11.78133" width="69.78221" y="21.28033" x="156.36772" id="Rectangle-11"/>
      <rect rx="5.9738" height="11.78133" width="119.62665" y="21.28033" x="236.11883" opacity="0.7" id="Rectangle-11"/>
      <rect rx="5.9738" height="11.78133" width="49.84444" y="21.28033" x="365.71437" opacity="0.7" id="Rectangle-11"/>
     </g>
     <g id="Group-87">
      <path fill="#fabe00" stroke-width="22.8" stroke="#fabe00" id="Rectangle-29" d="m385.29621,239.89709l-10.9089,6.34846l0,32.88583c0,4.65633 -3.83279,8.43102 -8.56078,8.43102l-109.58299,0c-4.728,0 -8.56078,-3.77469 -8.56078,-8.43102l0,-78.46858c0,-4.65632 3.83279,-8.43102 8.56078,-8.43102l109.58299,0c4.728,0 8.56078,3.7747 8.56078,8.43102l0,32.88583l10.9089,6.34846z"/>
      <path fill="#FFFFFF" id="thumbs-up" d="m288.91656,232.7792c0.88266,0 1.63292,0.30425 2.25078,0.91275c0.61787,0.60849 0.9268,1.34738 0.9268,2.21667l0,31.29417c0,0.86928 -0.30893,1.60817 -0.9268,2.21667c-0.61787,0.6085 -1.36812,0.91275 -2.25078,0.91275l-10.59195,0c-0.88266,0 -1.63292,-0.30425 -2.25078,-0.91275c-0.61786,-0.60849 -0.9268,-1.34738 -0.9268,-2.21667l0,-31.29417c0,-0.86928 0.30894,-1.60817 0.9268,-2.21667c0.61787,-0.6085 1.36812,-0.91275 2.25078,-0.91275l10.59195,0zm-5.29597,32.3373c0.88266,0 1.63292,-0.30425 2.25078,-0.91275c0.61786,-0.6085 0.9268,-1.34738 0.9268,-2.21667c0,-0.86928 -0.30894,-1.60817 -0.9268,-2.21668c-0.61787,-0.60849 -1.36812,-0.91274 -2.25078,-0.91274c-0.88267,0 -1.63293,0.30425 -2.25079,0.91274c-0.61786,0.6085 -0.92679,1.34739 -0.92679,2.21668c0,0.86928 0.30893,1.60816 0.92679,2.21667c0.61787,0.6085 1.36812,0.91275 2.25079,0.91275zm42.36777,-50.98341c0,1.56471 -0.2648,3.12942 -0.7944,4.69412c-0.35306,0.86928 -0.97092,2.08628 -1.85358,3.65098c-0.97093,1.8255 -1.54467,3.17288 -1.7212,4.04216l13.37233,0c2.20665,0 4.08231,0.76062 5.62697,2.28187c1.54466,1.52124 2.31699,3.28154 2.31699,5.28089c0,1.21699 -0.24274,2.39052 -0.7282,3.52059c-0.48546,1.13007 -1.08126,2.08628 -1.78739,2.86864l-0.1324,0c0.70613,1.65164 0.97092,3.43366 0.79439,5.34608c-0.17653,1.91242 -0.83853,3.60753 -1.98598,5.0853c0.5296,1.65164 0.57372,3.39021 0.1324,5.21569c-0.44134,1.8255 -1.19159,3.34674 -2.25078,4.56373c0.5296,2.26013 0.22066,4.21602 -0.9268,5.86766c-1.14747,1.65163 -3.26585,2.73824 -6.35516,3.25981c-1.85359,0.34771 -4.72225,0.52157 -8.60596,0.52157l-0.3972,0c-2.82452,0 -5.7373,-0.4781 -8.73835,-1.43432c-1.76532,-0.52157 -4.17058,-1.45605 -7.21577,-2.80344c-3.04518,-1.34738 -5.31804,-2.02108 -6.81856,-2.02108c-0.44134,0 -0.81647,-0.15212 -1.1254,-0.45638c-0.30893,-0.30425 -0.46339,-0.67369 -0.46339,-1.10833l0,-27.90396c0,-0.43465 0.17653,-0.78236 0.5296,-1.04314c1.76532,-1.8255 3.92785,-4.56373 6.48756,-8.21472c2.11839,-3.04249 3.88371,-5.2157 5.29597,-6.51962c0.88267,-0.86928 1.58879,-2.04281 2.11839,-3.5206c0.35307,-0.86928 0.75026,-2.26013 1.1916,-4.17255l0,-0.13039c0.5296,-1.99935 1.01506,-3.5206 1.45639,-4.56373c0.88266,-1.91242 1.89772,-2.86864 3.04518,-2.86864c2.38319,0 4.36918,0.56504 5.95797,1.69511c2.38318,1.73856 3.57478,4.69412 3.57478,8.86668z"/>
     </g>
     <g id="Group-88">
      <g stroke-width="22.8" stroke="#7510F7" fill="#7510F7" id="Group-87">
       <path stroke="#fabe00" stroke-opacity="0" fill="#fabe00" fill-opacity="0" id="Rectangle-29" d="m310.49178,667.97995l-10.9089,6.34846l0,32.88583c0,4.65633 -3.83279,8.43102 -8.56078,8.43102l-109.58299,0c-4.728,0 -8.56078,-3.77469 -8.56078,-8.43102l0,-78.46858c0,-4.65632 3.83279,-8.43102 8.56078,-8.43102l109.58299,0c4.728,0 8.56078,3.7747 8.56078,8.43102l0,32.88583l10.9089,6.34846z"/>
      </g>
      <path fill="#FFFFFF" id="life-ring" d="m127.297,336.59534c6.27013,0 12.07234,1.54377 17.40661,4.63131c5.33429,3.08754 9.56896,7.25802 12.70402,12.51145c3.13506,5.25342 4.70259,10.96768 4.70259,17.14275c0,6.17508 -1.56753,11.88933 -4.70259,17.14276c-3.13506,5.25343 -7.36973,9.42391 -12.70402,12.51145c-5.33428,3.08754 -11.13649,4.63131 -17.40661,4.63131c-6.27012,0 -12.07233,-1.54377 -17.4066,-4.63131c-5.33429,-3.08754 -9.56896,-7.25802 -12.70402,-12.51145c-3.13506,-5.25343 -4.70259,-10.96768 -4.70259,-17.14276c0,-6.17507 1.56753,-11.88933 4.70259,-17.14275c3.13506,-5.25343 7.36973,-9.42391 12.70402,-12.51145c5.33428,-3.08754 11.13649,-4.63131 17.4066,-4.63131zm24.42541,16.58976c-1.87168,-2.3963 -4.02412,-4.51611 -6.45729,-6.35941l-8.84369,8.84787c2.62036,1.56682 4.72599,3.64053 6.31692,6.22116l8.98407,-8.70962zm-24.42541,30.96757c3.74336,0 6.92521,-1.29032 9.54556,-3.87095c2.62035,-2.58063 3.93053,-5.71425 3.93053,-9.40087c0,-3.68661 -1.31018,-6.82023 -3.93053,-9.40086c-2.62035,-2.58064 -5.8022,-3.87095 -9.54556,-3.87095c-3.74335,0 -6.9252,1.29031 -9.54555,3.87095c-2.62035,2.58063 -3.93053,5.71425 -3.93053,9.40086c0,3.68662 1.31018,6.82024 3.93053,9.40087c2.62035,2.58063 5.8022,3.87095 9.54555,3.87095zm-17.96811,-37.32698c-2.43318,1.84331 -4.58562,3.96311 -6.45729,6.35941l8.98406,8.70962c1.59093,-2.58063 3.69657,-4.65434 6.31692,-6.22116l-8.84368,-8.84787zm-6.45729,41.75091c1.87168,2.39629 4.02411,4.5161 6.45729,6.3594l8.84368,-8.84787c-2.62035,-1.56681 -4.72598,-3.64053 -6.31692,-6.22116l-8.98406,8.70963zm42.39353,6.3594c2.43317,-1.84331 4.58562,-3.96311 6.45729,-6.3594l-8.98407,-8.70963c-1.59092,2.58063 -3.69656,4.65435 -6.31692,6.22116l8.84369,8.84787z"/>
     </g>
     <g id="Group-89">
      <path fill="#fabe00" stroke-width="22.8" stroke="#fabe00" id="Rectangle-29" d="m1051.08245,784.68216l1.09569,0.63764c6.08187,3.53936 9.81321,9.97921 9.81321,16.93646l0,18.26078c0,6.53376 5.37818,11.83042 12.01251,11.83042l106.13127,0c4.728,0 8.56078,-3.77469 8.56078,-8.43102l0,-78.46858c0,-4.65632 -3.83279,-8.43102 -8.56078,-8.43102l-109.58299,0c-4.728,0 -8.56078,3.7747 -8.56078,8.43102l0,32.88583l-10.9089,6.34846z"/>
      <path fill="#FFFFFF" id="question-circle" d="m1156.09141,785.09635c0,5.55619 -1.41043,10.69774 -4.23128,15.42465c-2.82085,4.72691 -6.63111,8.47941 -11.43078,11.25751c-4.79967,2.77809 -10.02035,4.16714 -15.66206,4.16714c-5.64171,0 -10.86239,-1.38905 -15.66206,-4.16714c-4.79966,-2.77809 -8.60991,-6.5306 -11.43077,-11.25751c-2.82086,-4.72691 -4.23129,-9.86846 -4.23129,-15.42465c0,-5.55619 1.41043,-10.69774 4.23129,-15.42465c2.82085,-4.72691 6.63111,-8.47941 11.43077,-11.25751c4.79967,-2.77809 10.02035,-4.16714 15.66206,-4.16714c5.64171,0 10.86239,1.38905 15.66206,4.16714c4.79967,2.77809 8.60992,6.5306 11.43078,11.25751c2.82085,4.72691 4.23128,9.86846 4.23128,15.42465zm-30.43996,-20.64913c-3.36819,0 -6.27325,0.70489 -8.71518,2.11468c-2.27352,1.24392 -4.29444,3.19273 -6.06274,5.84643c-0.25261,0.33172 -0.33681,0.68416 -0.25261,1.05734c0.08421,0.37317 0.29471,0.68415 0.63154,0.93294l4.42074,3.2342c0.25261,0.24879 0.58943,0.35245 1.01045,0.31098c0.42102,-0.04146 0.75784,-0.22805 1.01045,-0.55976c1.34728,-1.57564 2.39983,-2.65371 3.15768,-3.23421c1.17886,-0.82928 2.52614,-1.24392 4.04182,-1.24392c1.43147,0 2.7577,0.39391 3.97866,1.18173c1.22097,0.78781 1.83146,1.76222 1.83146,2.92322c0,0.91222 -0.37892,1.70003 -1.13676,2.36346c-0.50523,0.41464 -1.47359,1.0366 -2.90506,1.86589l-0.25262,0.12439c-2.10511,1.16099 -3.57869,2.1976 -4.42074,3.1098c-1.51568,1.57563 -2.27352,3.44152 -2.27352,5.59765l0,0.49757c0,0.41465 0.14736,0.76709 0.44208,1.05734c0.29471,0.29024 0.65258,0.43538 1.0736,0.43538l7.07319,0c0.42102,0 0.77889,-0.14513 1.07361,-0.43538c0.29471,-0.29024 0.44207,-0.64269 0.44207,-1.05734l0,-0.12438c0,-0.66343 0.33682,-1.24392 1.01046,-1.74149c0.42102,-0.33172 1.22097,-0.82929 2.39983,-1.49271c2.18932,-1.32684 3.7471,-2.48784 4.67335,-3.48299c1.5999,-1.74149 2.39983,-3.93909 2.39983,-6.59279c0,-2.32199 -0.71574,-4.45739 -2.14721,-6.4062c-1.43148,-1.94882 -3.28398,-3.48299 -5.5575,-4.60252c-2.27352,-1.11953 -4.58915,-1.6793 -6.94688,-1.6793zm-0.88415,30.84929c-1.59989,0 -2.96821,0.55977 -4.10497,1.6793c-1.13676,1.11953 -1.70515,2.46711 -1.70515,4.04275c0,1.57563 0.56839,2.92322 1.70515,4.04275c1.13676,1.11953 2.50509,1.6793 4.10497,1.6793c1.59989,0 2.96822,-0.55977 4.10497,-1.6793c1.13677,-1.11953 1.70515,-2.46711 1.70515,-4.04275c0,-1.57563 -0.56838,-2.92322 -1.70515,-4.04275c-1.13675,-1.11953 -2.50509,-1.6793 -4.10497,-1.6793z"/>
     </g>
    </g>
    <g id="Group-33">
     <circle r="25.63818" cy="620.48795" cx="83.27567" opacity="0.253" fill-rule="nonzero" fill="#fabe00" id="Oval"/>
     <circle r="23.66601" cy="274.37255" cx="30.20883" opacity="0.451" fill-rule="nonzero" fill="#fabe00" id="Oval"/>
     <circle r="15.2843" cy="149.63296" cx="104.80278" opacity="0.494" fill-rule="nonzero" fill="#fabe00" id="Oval"/>
     <g stroke-width="12" stroke="#7510F7" stroke-linecap="round" opacity="0.7" id="Group"/>
     <circle r="15.2843" cy="491.80402" cx="260.99952" opacity="0.494" fill-rule="nonzero" fill="#fabe00" id="svg_16"/>
     <circle r="15.2843" cy="185.13198" cx="1120.08155" opacity="0.494" fill-rule="nonzero" fill="#fabe00" id="svg_17"/>
     <circle r="23.66601" cy="413.41036" cx="1399.93404" opacity="0.451" fill-rule="nonzero" fill="#fabe00" id="svg_18"/>
    </g>
   </g>
  </g>
  <circle r="26" cy="87.85715" cx="1264.85706" opacity="0.253" fill-rule="nonzero" fill="#fabe00" id="svg_15"/>
 </g>
</svg>