<svg width="367.14001" height="367.13998" xmlns="http://www.w3.org/2000/svg">

 <metadata id="metadata2213">image/svg+xml</metadata>
 <g>
  <title>background</title>
  <rect fill="none" id="canvas_background" height="50" width="50" y="-1" x="-1"/>
 </g>
 <g>
  <title>Layer 1</title>
  <g id="layer1">
   <g font-style="normal" font-weight="normal" font-size="5.33333px" font-family="'Open Sans'" text-anchor="start" fill="#000000" id="text824">
    <path fill="#141c3a" id="path825" d="m170.16731,44.61233c-54.6689,6.19326 -87.03272,38.03764 -101.27968,59.90179c-17.2092,26.23698 -28.14872,52.82971 -25.13998,95.49247c5.21919,0.98741 17.73438,1.62667 32.54558,1.20349c13.54167,-0.42317 56.13188,0.14106 62.05636,1.69271c0.42318,3.24436 0.63476,13.40061 0.63476,30.46875c0,16.50391 -0.0182,47.05659 -1.56986,49.73672c-26.3987,-9.89501 -42.78661,-26.15485 -54.35043,-49.10195c-8.81169,-0.12308 -19.31082,-0.12308 -30.7831,0c6.15854,18.59126 18.70887,34.4844 35.63596,52.82207c17.49132,18.90191 64.14498,34.90296 80.68641,35.75505c1.4106,-50.07595 0.77925,-99.08602 -0.63135,-149.30303c-4.93706,-0.98741 -15.16383,-1.199 -30.68033,-0.63477c-13.68272,0.42318 -56.06135,-0.42317 -61.4216,-2.53906c0,-11.14367 2.89171,-22.63998 8.67513,-34.48893c6.77083,-13.68273 20.89611,-47.7195 55.94727,-52.11031c0.7053,2.82118 -1.15545,34.9011 -1.29651,41.95405c-0.28212,7.19401 -0.0705,12.13108 0.63477,14.8112c10.15625,1.69271 21.06879,1.69271 30.23763,0c-0.34566,-28.12734 -0.77986,-74.28329 0.099,-95.66025l-0.00003,0z"/>
   </g>
   <g font-style="normal" font-weight="normal" font-size="5.33333px" font-family="'Open Sans'" text-anchor="start" fill="#fabe00" id="text828">
    <path fill="#141c3a" id="path822" d="m303.64823,117.57812c-0.84635,-5.36024 -5.9768,-11.60326 -13.8761,-21.75951c-6.34766,-8.04036 -11.59642,-12.59067 -16.25137,-16.68138l-0.25254,79.52318l0,81.68002c-5.62254,12.03362 -26.29567,38.08449 -45.62769,38.86379c-0.84636,-4.37283 -1.88609,-31.11238 -1.60397,-41.83287c0.28212,-10.86155 0,-18.47873 -0.84635,-22.85156c-12.83638,-1.83377 -22.14627,-2.11589 -27.92969,-0.84636c-1.26953,52.3329 -1.16599,90.91999 -0.76079,108.6184c27.1072,0.0239 68.58707,-22.50185 83.11615,-39.00576c13.68272,-15.5165 20.17828,-23.80718 24.53743,-34.72105l-0.50508,-130.9869z"/>
   </g>
   <path fill="#141c3a" fill-rule="evenodd" stroke-width="1.06113" id="path12" d="m183.56999,11a173.57001,173.57001 0 0 0 -173.57,173.56998a173.57001,173.57001 0 0 0 173.57,173.56999a173.57001,173.57001 0 0 0 173.57,-173.56999a173.57001,173.57001 0 0 0 -173.57,-173.56998zm0,10.84808a162.72188,162.72188 0 0 1 162.72187,162.7219a162.72188,162.72188 0 0 1 -162.72187,162.72187a162.72188,162.72188 0 0 1 -162.72187,-162.72187a162.72188,162.72188 0 0 1 162.72187,-162.7219z"/>
  </g>
 </g>
</svg>