<?xml version="1.0" encoding="UTF-8" standalone="no"?>
<!DOCTYPE svg PUBLIC "-//W3C//DTD SVG 1.1//EN" "http://www.w3.org/Graphics/SVG/1.1/DTD/svg11.dtd">
<svg version="1.1" xmlns="http://www.w3.org/2000/svg" xmlns:xlink="http://www.w3.org/1999/xlink" preserveAspectRatio="xMidYMid meet" viewBox="0 0 640 640" width="64" height="64"><defs><path d="M367 0C367 0 367 0 367 0C367 220.2 367 342.53 367 367C367 367 367 367 367 367C146.8 367 24.47 367 0 367C0 367 0 367 0 367C0 146.8 0 24.47 0 0C0 0 0 0 0 0C220.2 0 342.53 0 367 0Z" id="b3kNknGFCI"></path><path d="M49 -1C49 -1 49 -1 49 -1C49 29 49 45.67 49 49C49 49 49 49 49 49C19 49 2.33 49 -1 49C-1 49 -1 49 -1 49C-1 19 -1 2.33 -1 -1C-1 -1 -1 -1 -1 -1C29 -1 45.67 -1 49 -1Z" id="c1Co1nQChw"></path><path d="M68.89 104.51C51.68 130.75 40.74 157.34 43.75 200.01C48.97 200.99 61.48 201.63 76.29 201.21C89.83 200.79 132.43 201.35 138.35 202.9C138.77 206.15 138.98 216.3 138.98 233.37C138.98 249.88 138.97 280.43 137.41 283.11C111.02 273.21 94.63 256.95 83.06 234.01C74.25 233.88 63.75 233.88 52.28 234.01C58.44 252.6 70.99 268.49 87.92 286.83C105.41 305.73 152.06 321.73 168.6 322.58C170.01 272.51 169.38 223.5 167.97 173.28C163.03 172.29 152.81 172.08 137.29 172.65C123.61 173.07 81.23 172.22 75.87 170.11C75.87 158.96 78.76 147.47 84.55 135.62C91.32 121.93 105.44 87.9 140.49 83.51C141.2 86.33 139.34 118.41 139.2 125.46C138.91 132.66 139.13 137.59 139.83 140.27C149.99 141.97 160.9 141.97 170.07 140.27C169.72 112.15 169.29 65.99 170.17 44.61C170.17 44.61 170.17 44.61 170.17 44.61C112.15 69.97 78.39 89.94 68.89 104.51Z" id="cVPn5ECph"></path><path d="M289.77 95.82C283.42 87.78 278.18 83.23 273.52 79.14C273.5 84.44 273.42 110.95 273.27 158.66C273.27 207.67 273.27 234.9 273.27 240.34C267.65 252.37 246.97 278.42 227.64 279.2C226.79 274.83 225.75 248.09 226.04 237.37C226.32 226.51 226.04 218.89 225.19 214.52C212.35 212.69 203.04 212.4 197.26 213.67C195.99 266.01 196.09 304.59 196.5 322.29C223.61 322.32 265.09 299.79 279.62 283.29C293.3 267.77 299.79 259.48 304.15 248.57C304.12 239.83 303.95 196.17 303.65 117.58C299.66 109.84 295.04 102.59 289.77 95.82Z" id="b1rNYTxGFa"></path><path d="M10 184.57C10 280.43 87.71 358.14 183.57 358.14C279.43 358.14 357.14 280.43 357.14 184.57C357.14 88.71 279.43 11 183.57 11C87.71 11 10 88.71 10 184.57ZM346.29 184.57C346.29 184.57 346.29 184.57 346.29 184.57C346.29 274.44 273.44 347.29 183.57 347.29C93.7 347.29 20.85 274.44 20.85 184.57C20.85 94.7 93.7 21.85 183.57 21.85C183.57 21.85 183.57 21.85 183.57 21.85C273.44 21.85 346.29 94.7 346.29 184.57Z" id="a3IjrwxQDb"></path></defs><g><g><g><use xlink:href="#b3kNknGFCI" opacity="1" fill="#000000" fill-opacity="0"></use><g><use xlink:href="#b3kNknGFCI" opacity="1" fill-opacity="0" stroke="#000000" stroke-width="1" stroke-opacity="0"></use></g></g><g><use xlink:href="#c1Co1nQChw" opacity="1" fill="#000000" fill-opacity="0"></use><g><use xlink:href="#c1Co1nQChw" opacity="1" fill-opacity="0" stroke="#000000" stroke-width="1" stroke-opacity="0"></use></g></g><g><use xlink:href="#cVPn5ECph" opacity="1" fill="#ffffff" fill-opacity="1"></use><g><use xlink:href="#cVPn5ECph" opacity="1" fill-opacity="0" stroke="#ffffff" stroke-width="1" stroke-opacity="1"></use></g></g><g><use xlink:href="#b1rNYTxGFa" opacity="1" fill="#ffffff" fill-opacity="1"></use><g><use xlink:href="#b1rNYTxGFa" opacity="1" fill-opacity="0" stroke="#ffffff" stroke-width="1" stroke-opacity="1"></use></g></g><g><use xlink:href="#a3IjrwxQDb" opacity="1" fill="#ffffff" fill-opacity="1"></use><g><use xlink:href="#a3IjrwxQDb" opacity="1" fill-opacity="0" stroke="#ffffff" stroke-width="1.06" stroke-opacity="1"></use></g></g></g></g></svg>